control3min_grf.mot
version=1
nRows=30
nColumns 19
inDegrees=yes
endheader
time	1_ground_force_vx	1_ground_force_vy	1_ground_force_vz	1_ground_force_px	1_ground_force_py	1_ground_force_pz	1_ground_torque_x	1_ground_torque_y	1_ground_torque_z	2_ground_force_vx	2_ground_force_vy	2_ground_force_vz	2_ground_force_px	2_ground_force_py	2_ground_force_pz	2_ground_torque_x	2_ground_torque_y	2_ground_torque_z
            3.751500	           46.035875	         1044.654793	          -81.204625	           -0.232510	            0.006074	           -0.370480	            0.226676	            5.143766	           -0.399843	           48.096052	          847.655674	          100.519959	           -0.215203	            0.005822	           -0.730124	           -0.115243	           -2.031076	           -0.240857
            3.752000	           45.026035	         1047.360051	          -81.511507	           -0.232461	            0.006074	           -0.370487	            0.221909	            5.161875	           -0.401726	           47.527043	          849.496390	          100.151344	           -0.215057	            0.005823	           -0.730018	           -0.116585	           -2.083838	           -0.245674
            3.752500	           43.558014	         1049.343840	          -81.774507	           -0.232421	            0.006074	           -0.370469	            0.210888	            5.080452	           -0.395915	           46.540440	          850.230359	           99.919758	           -0.214794	            0.005823	           -0.729847	           -0.119669	           -2.186195	           -0.256923
            3.753000	           42.227903	         1051.146890	          -81.901049	           -0.232387	            0.006074	           -0.370640	            0.204415	            5.088342	           -0.396463	           45.500413	          852.804897	           99.882460	           -0.214679	            0.005823	           -0.729834	           -0.122018	           -2.286964	           -0.267854
            3.753500	           41.126902	         1053.490752	          -82.025826	           -0.232165	            0.006075	           -0.370679	            0.199121	            5.100611	           -0.397139	           44.980914	          853.909219	           99.511196	           -0.214439	            0.005823	           -0.729647	           -0.129197	           -2.452646	           -0.285822
            3.754000	           39.751409	         1055.833577	          -81.920660	           -0.232139	            0.006075	           -0.370668	            0.199175	            5.290260	           -0.410464	           43.993617	          854.827436	           99.233331	           -0.214342	            0.005824	           -0.729715	           -0.128844	           -2.503527	           -0.290624
            3.754500	           38.283421	         1057.636947	          -82.184418	           -0.232034	            0.006075	           -0.370789	            0.193883	            5.356301	           -0.416215	           42.820916	          855.192492	           98.953575	           -0.214237	            0.005824	           -0.729472	           -0.126666	           -2.529689	           -0.292708
            3.755000	           37.044162	         1059.621810	          -82.631409	           -0.231971	            0.006075	           -0.370683	            0.190621	            5.452579	           -0.425203	           42.018286	          856.848618	           98.490546	           -0.214034	            0.005824	           -0.729473	           -0.123614	           -2.520763	           -0.289749
            3.755500	           35.117432	         1061.245507	          -83.032374	           -0.231825	            0.006075	           -0.370782	            0.177937	            5.377229	           -0.420717	           40.747269	          858.502047	           98.309285	           -0.213910	            0.005825	           -0.729454	           -0.122003	           -2.570477	           -0.294352
            3.756000	           33.649202	         1062.508944	          -83.436021	           -0.231603	            0.006075	           -0.370776	            0.169542	            5.353453	           -0.420393	           39.480995	          858.865761	           98.311137	           -0.213690	            0.005824	           -0.729104	           -0.121378	           -2.640435	           -0.302241
            3.756500	           31.814291	         1064.673032	          -83.743190	           -0.231467	            0.006075	           -0.370669	            0.159782	            5.347158	           -0.420587	           38.585449	          860.336464	           98.129060	           -0.213478	            0.005825	           -0.729117	           -0.127465	           -2.842069	           -0.324163
            3.757000	           30.117270	         1066.115813	          -83.962073	           -0.231393	            0.006075	           -0.370740	            0.152168	            5.386575	           -0.424220	           37.320483	          860.332064	           98.082678	           -0.213184	            0.005825	           -0.728854	           -0.126269	           -2.910814	           -0.331849
            3.757500	           28.282978	         1067.378000	          -84.089682	           -0.231216	            0.006075	           -0.370687	            0.144730	            5.461995	           -0.430304	           36.195237	          860.513590	           97.661452	           -0.213200	            0.005824	           -0.728571	           -0.126299	           -3.002649	           -0.340777
            3.758000	           26.631733	         1069.181138	          -84.307133	           -0.230991	            0.006075	           -0.370699	            0.140007	            5.620830	           -0.443214	           34.594237	          862.718654	           97.388446	           -0.213060	            0.005825	           -0.728635	           -0.118586	           -2.957318	           -0.333838
            3.758500	           24.704764	         1070.264902	          -84.847987	           -0.230890	            0.006075	           -0.370806	            0.130615	            5.658548	           -0.448596	           32.998584	          863.450302	           97.157119	           -0.212749	            0.005826	           -0.728567	           -0.113360	           -2.966222	           -0.333765
            3.759000	           22.731367	         1072.070141	          -85.569060	           -0.230696	            0.006075	           -0.370653	            0.117990	            5.564697	           -0.444156	           31.586354	          865.287426	           96.976575	           -0.212507	            0.005827	           -0.728699	           -0.108923	           -2.983872	           -0.334416
            3.759500	           20.529469	         1073.694225	          -86.015208	           -0.230566	            0.006075	           -0.370807	            0.104529	            5.466903	           -0.437962	           30.179512	          865.650800	           96.931551	           -0.212234	            0.005827	           -0.728463	           -0.109828	           -3.150229	           -0.352748
            3.760000	           18.602533	         1074.597572	          -86.556836	           -0.230382	            0.006076	           -0.370811	            0.094146	            5.438454	           -0.438057	           28.629414	          866.750564	           96.795374	           -0.212071	            0.005828	           -0.728509	           -0.108212	           -3.276085	           -0.365861
            3.760500	           16.172787	         1074.957450	          -86.549260	           -0.230079	            0.006076	           -0.370872	            0.081639	            5.426307	           -0.436894	           26.851132	          866.191607	           96.841081	           -0.211664	            0.005828	           -0.728240	           -0.101824	           -3.284745	           -0.367238
            3.761000	           14.200545	         1076.040223	          -86.860725	           -0.229923	            0.006076	           -0.370882	            0.073035	            5.534184	           -0.446733	           25.112929	          867.475231	           96.611784	           -0.211518	            0.005829	           -0.728174	           -0.096166	           -3.321844	           -0.369958
            3.761500	           11.997754	         1076.944892	          -87.722649	           -0.229778	            0.006076	           -0.370882	            0.062237	            5.586523	           -0.455051	           23.189324	          868.205695	           96.380581	           -0.211364	            0.005829	           -0.728103	           -0.088661	           -3.319451	           -0.368496
            3.762000	            9.796231	         1078.387969	          -88.031999	           -0.229526	            0.006076	           -0.370873	            0.050141	            5.519608	           -0.450582	           21.455794	          868.200106	           96.193606	           -0.211128	            0.005829	           -0.727900	           -0.081626	           -3.302970	           -0.365958
            3.762500	            8.098510	         1079.291115	          -88.574197	           -0.229313	            0.006076	           -0.370842	            0.041580	            5.541339	           -0.454761	           19.622689	          869.850668	           96.247233	           -0.210879	            0.005830	           -0.727880	           -0.076012	           -3.369523	           -0.372831
            3.763000	            5.804992	         1080.554590	          -89.021664	           -0.229101	            0.006076	           -0.370771	            0.029267	            5.447876	           -0.448824	           17.654890	          869.844400	           96.013421	           -0.210541	            0.005830	           -0.727594	           -0.070656	           -3.481179	           -0.384253
            3.763500	            3.189956	         1081.458589	          -89.745008	           -0.228875	            0.006076	           -0.370925	            0.016034	            5.435938	           -0.451102	           15.212652	          871.493433	           95.879594	           -0.210401	            0.005831	           -0.727592	           -0.062187	           -3.562520	           -0.391940
            3.764000	            1.217030	         1082.542297	          -90.331601	           -0.228659	            0.006076	           -0.370807	            0.006119	            5.442999	           -0.454185	           13.801880	          872.961149	           95.979304	           -0.210128	            0.005832	           -0.727723	           -0.057384	           -3.629514	           -0.399054
            3.764500	           -1.535047	         1083.265310	          -90.871953	           -0.228461	            0.006076	           -0.370800	           -0.007624	            5.380425	           -0.451348	           11.551651	          873.322270	           95.746927	           -0.209793	            0.005832	           -0.727478	           -0.048063	           -3.633644	           -0.398376
            3.765000	           -3.507730	         1084.889195	          -91.318656	           -0.228210	            0.006076	           -0.370793	           -0.017590	            5.440295	           -0.457927	            9.395247	          873.682603	           95.796094	           -0.209484	            0.005833	           -0.727361	           -0.038547	           -3.584566	           -0.393034
            3.765500	           -5.756004	         1085.072277	          -92.091870	           -0.228027	            0.006076	           -0.370901	           -0.028294	            5.333667	           -0.452677	            7.240131	          873.674989	           95.750074	           -0.209167	            0.005834	           -0.727157	           -0.029312	           -3.537156	           -0.387653
            3.766000	           -8.095803	         1085.615785	          -92.771575	           -0.227845	            0.006077	           -0.370985	           -0.039521	            5.299562	           -0.452875	            5.124698	          875.691981	           96.039767	           -0.208946	            0.005835	           -0.727245	           -0.021436	           -3.662917	           -0.401723
